<?xml version="1.0" encoding="UTF-8"?>
<svg width="300px" height="300px" viewBox="0 0 300 300" version="1.1" xmlns="http://www.w3.org/2000/svg" xmlns:xlink="http://www.w3.org/1999/xlink">
    <!-- Generator: Sketch 51.3 (57544) - http://www.bohemiancoding.com/sketch -->
    <title>Fffields</title>
    <desc>Created with Sketch.</desc>
    <defs></defs>
    <g id="Page-1" stroke="none" stroke-width="1" fill="none" fill-rule="evenodd">
        <path d="M126.585905,270.569645 L93.3424614,288.516274 L82.3366025,252.376558 L44.755788,256.235365 L48.4177709,218.634861 L12.2209238,207.81838 L29.9932447,174.481424 L0.69100692,150.636364 L29.8679912,126.638206 L11.9213627,93.3947619 L48.061079,82.388903 L44.2022714,44.8080885 L81.8027753,48.4700714 L92.6192571,12.2732243 L125.956213,30.0455453 L149.801273,0.743307455 L173.799431,29.9202917 L207.042875,11.9736633 L218.048734,48.1133795 L255.629548,44.2545719 L251.967565,81.8550759 L288.164412,92.6715576 L270.392091,126.008513 L299.694329,149.853573 L270.517345,173.851732 L288.463973,207.095175 L252.324257,218.101034 L256.183065,255.681849 L218.582561,252.019866 L207.766079,288.216713 L174.429123,270.444392 L150.584063,299.74663 L126.585905,270.569645 Z M108.941176,177.75 C111.491431,177.75 113.558824,175.679317 113.558824,173.125 L113.558824,150 C113.558824,147.445683 111.491431,145.375 108.941176,145.375 L85.8529412,145.375 C83.3026863,145.375 81.2352941,147.445683 81.2352941,150 L81.2352941,173.125 C81.2352941,175.679317 83.3026863,177.75 85.8529412,177.75 L108.941176,177.75 Z M90.4705882,168.5 L90.4705882,154.625 L104.323529,154.625 L104.323529,168.5 L90.4705882,168.5 Z M108.941176,224 C111.491431,224 113.558824,221.929316 113.558824,219.375 L113.558824,196.25 C113.558824,193.695684 111.491431,191.625 108.941176,191.625 L85.8529412,191.625 C83.3026863,191.625 81.2352941,193.695684 81.2352941,196.25 L81.2352941,219.375 C81.2352941,221.929316 83.3026863,224 85.8529412,224 L108.941176,224 Z M90.4705882,214.75 L90.4705882,200.875 L104.323529,200.875 L104.323529,214.75 L90.4705882,214.75 Z M72,89.8732194 L72,117.626781 C72,125.286547 78.2080848,131.5 85.860992,131.5 L215.139008,131.5 C222.788133,131.5 229,125.288023 229,117.626781 L229,89.8732194 C229,82.213453 222.791915,76 215.139008,76 L85.860992,76 C78.2118666,76 72,82.2119774 72,89.8732194 Z M182.823529,85.25 L215.139008,85.25 C217.692904,85.25 219.764706,87.3235926 219.764706,89.8732194 L219.764706,117.626781 C219.764706,120.176128 217.69087,122.25 215.139008,122.25 L182.823529,122.25 L182.823529,85.25 Z M81.2352941,89.8732194 C81.2352941,87.3238722 83.3091302,85.25 85.860992,85.25 L173.588235,85.25 L173.588235,122.25 L85.860992,122.25 C83.3070961,122.25 81.2352941,120.176407 81.2352941,117.626781 L81.2352941,89.8732194 Z M204.955418,109.332869 C206.758722,111.139044 209.682454,111.139044 211.485759,109.332869 C213.289061,107.526694 213.289061,104.598306 211.485759,102.792131 L204.559288,95.854631 C202.755984,94.0484564 199.832251,94.0484564 198.028947,95.854631 L191.102477,102.792131 C189.299175,104.598306 189.299175,107.526694 191.102477,109.332869 C192.905781,111.139044 195.829513,111.139044 197.632818,109.332869 L201.294118,105.665738 L204.955418,109.332869 Z M95.0882353,108.375 L136.699506,108.375 C139.249761,108.375 141.317153,106.304317 141.317153,103.75 C141.317153,101.195683 139.249761,99.125 136.699506,99.125 L95.0882353,99.125 C92.5379804,99.125 90.4705882,101.195683 90.4705882,103.75 C90.4705882,106.304317 92.5379804,108.375 95.0882353,108.375 Z M127.411765,166.1875 L185.132353,166.1875 C187.682608,166.1875 189.75,164.116817 189.75,161.5625 C189.75,159.008183 187.682608,156.9375 185.132353,156.9375 L127.411765,156.9375 C124.86151,156.9375 122.794118,159.008183 122.794118,161.5625 C122.794118,164.116817 124.86151,166.1875 127.411765,166.1875 Z M127.411765,212.4375 L162.044118,212.4375 C164.594373,212.4375 166.661765,210.366816 166.661765,207.8125 C166.661765,205.258184 164.594373,203.1875 162.044118,203.1875 L127.411765,203.1875 C124.86151,203.1875 122.794118,205.258184 122.794118,207.8125 C122.794118,210.366816 124.86151,212.4375 127.411765,212.4375 Z" id="Fffields" fill="#FB48C4" fill-rule="nonzero"></path>
    </g>
</svg>